<?xml version="1.0" encoding="UTF-8" standalone="no"?>
<!DOCTYPE svg PUBLIC "-//W3C//DTD SVG 1.1//EN" "http://www.w3.org/Graphics/SVG/1.1/DTD/svg11.dtd">
<svg version="1.1" xmlns="http://www.w3.org/2000/svg" xmlns:xlink="http://www.w3.org/1999/xlink" preserveAspectRatio="xMidYMid meet" viewBox="0 0 640 640" width="640" height="640"><defs><path d="M0 640C35.14 617.5 57.11 603.44 65.89 597.81C103.99 573.42 128.89 532.97 133.51 487.97C135.68 466.79 136.08 462.89 138.55 438.82C142.23 403.03 162.29 370.98 192.87 352.04C230.14 328.96 183.17 358.05 192.87 352.04C291.05 291.24 312.27 157.4 237.72 69.21C226.02 55.36 266.02 102.69 237.72 69.21C200.63 25.32 146.08 0 88.61 0C76.8 0 47.26 0 0 0L0 640Z" id="b1PdTKfluQ"></path></defs><g><g><g><use xlink:href="#b1PdTKfluQ" opacity="1" fill="#e5e7f6" fill-opacity="1"></use></g></g></g></svg>